<mxfile modified="2023-11-02T16:34:59.720Z" host="app.diagrams.net" agent="Mozilla/5.0 (X11; Linux x86_64) AppleWebKit/537.36 (KHTML, like Gecko) Chrome/118.0.0.0 Safari/537.36" etag="FEb09-ILr3iMqLoe261i" version="22.0.8" type="device">
  <diagram id="Ht1M8jgEwFfnCIfOTk4-" name="Page-1">
    <mxGraphModel dx="4097" dy="3828" grid="1" gridSize="10" guides="1" tooltips="1" connect="1" arrows="1" fold="1" page="1" pageScale="1" pageWidth="2336" pageHeight="1654" math="0" shadow="0">
      <root>
        <mxCell id="0" />
        <mxCell id="1" parent="0" />
        <mxCell id="xBkIFKBq-N3a4EHUcWVp-1" value="objects" style="swimlane;fontStyle=1;childLayout=stackLayout;horizontal=1;startSize=26;fillColor=none;horizontalStack=0;resizeParent=1;resizeParentMax=0;resizeLast=0;collapsible=1;marginBottom=0;" parent="1" vertex="1">
          <mxGeometry x="1070" y="-1506" width="170" height="494" as="geometry" />
        </mxCell>
        <mxCell id="xBkIFKBq-N3a4EHUcWVp-2" value="+ id: UUID v4" style="text;strokeColor=default;fillColor=none;align=left;verticalAlign=top;spacingLeft=4;spacingRight=4;overflow=hidden;rotatable=0;points=[[0,0.5],[1,0.5]];portConstraint=eastwest;fontColor=#006633;fontStyle=1;dashed=1;dashPattern=1 4;" parent="xBkIFKBq-N3a4EHUcWVp-1" vertex="1">
          <mxGeometry y="26" width="170" height="26" as="geometry" />
        </mxCell>
        <mxCell id="xBkIFKBq-N3a4EHUcWVp-4" value="+ revision_number: UInt64" style="text;strokeColor=default;fillColor=none;align=left;verticalAlign=top;spacingLeft=4;spacingRight=4;overflow=hidden;rotatable=0;points=[[0,0.5],[1,0.5]];portConstraint=eastwest;fontColor=default;fontStyle=0;dashed=1;dashPattern=1 4;" parent="xBkIFKBq-N3a4EHUcWVp-1" vertex="1">
          <mxGeometry y="52" width="170" height="26" as="geometry" />
        </mxCell>
        <mxCell id="63bouKpKImv6Q-pQvR82-46" value="+ name: Varchar (511)" style="text;strokeColor=default;fillColor=none;align=left;verticalAlign=top;spacingLeft=4;spacingRight=4;overflow=hidden;rotatable=0;points=[[0,0.5],[1,0.5]];portConstraint=eastwest;dashed=1;dashPattern=1 4;" vertex="1" parent="xBkIFKBq-N3a4EHUcWVp-1">
          <mxGeometry y="78" width="170" height="26" as="geometry" />
        </mxCell>
        <mxCell id="63bouKpKImv6Q-pQvR82-47" value="+ description: Varchar (1023)" style="text;strokeColor=default;fillColor=none;align=left;verticalAlign=top;spacingLeft=4;spacingRight=4;overflow=hidden;rotatable=0;points=[[0,0.5],[1,0.5]];portConstraint=eastwest;fontColor=default;fontStyle=0;dashed=1;dashPattern=1 4;" vertex="1" parent="xBkIFKBq-N3a4EHUcWVp-1">
          <mxGeometry y="104" width="170" height="26" as="geometry" />
        </mxCell>
        <mxCell id="63bouKpKImv6Q-pQvR82-48" value="+ created_at: Timestamp" style="text;strokeColor=default;fillColor=none;align=left;verticalAlign=top;spacingLeft=4;spacingRight=4;overflow=hidden;rotatable=0;points=[[0,0.5],[1,0.5]];portConstraint=eastwest;dashed=1;dashPattern=1 4;" vertex="1" parent="xBkIFKBq-N3a4EHUcWVp-1">
          <mxGeometry y="130" width="170" height="26" as="geometry" />
        </mxCell>
        <mxCell id="63bouKpKImv6Q-pQvR82-49" value="+ content_len: UInt64" style="text;strokeColor=default;fillColor=none;align=left;verticalAlign=top;spacingLeft=4;spacingRight=4;overflow=hidden;rotatable=0;points=[[0,0.5],[1,0.5]];portConstraint=eastwest;fontColor=default;fontStyle=0;dashed=1;dashPattern=1 4;" vertex="1" parent="xBkIFKBq-N3a4EHUcWVp-1">
          <mxGeometry y="156" width="170" height="26" as="geometry" />
        </mxCell>
        <mxCell id="63bouKpKImv6Q-pQvR82-50" value="+ count: UInt64" style="text;strokeColor=default;fillColor=none;align=left;verticalAlign=top;spacingLeft=4;spacingRight=4;overflow=hidden;rotatable=0;points=[[0,0.5],[1,0.5]];portConstraint=eastwest;fontColor=default;fontStyle=0;dashed=1;dashPattern=1 4;" vertex="1" parent="xBkIFKBq-N3a4EHUcWVp-1">
          <mxGeometry y="182" width="170" height="26" as="geometry" />
        </mxCell>
        <mxCell id="63bouKpKImv6Q-pQvR82-51" value="+ key_values: JSON" style="text;strokeColor=default;fillColor=none;align=left;verticalAlign=top;spacingLeft=4;spacingRight=4;overflow=hidden;rotatable=0;points=[[0,0.5],[1,0.5]];portConstraint=eastwest;dashed=1;dashPattern=1 4;" vertex="1" parent="xBkIFKBq-N3a4EHUcWVp-1">
          <mxGeometry y="208" width="170" height="26" as="geometry" />
        </mxCell>
        <mxCell id="63bouKpKImv6Q-pQvR82-52" value="+ object_status: Enum" style="text;strokeColor=default;fillColor=none;align=left;verticalAlign=top;spacingLeft=4;spacingRight=4;overflow=hidden;rotatable=0;points=[[0,0.5],[1,0.5]];portConstraint=eastwest;fontColor=default;fontStyle=0;dashed=1;dashPattern=1 4;" vertex="1" parent="xBkIFKBq-N3a4EHUcWVp-1">
          <mxGeometry y="234" width="170" height="26" as="geometry" />
        </mxCell>
        <mxCell id="63bouKpKImv6Q-pQvR82-53" value="+ data_class: Enum" style="text;strokeColor=default;fillColor=none;align=left;verticalAlign=top;spacingLeft=4;spacingRight=4;overflow=hidden;rotatable=0;points=[[0,0.5],[1,0.5]];portConstraint=eastwest;fontColor=default;fontStyle=0;dashed=1;dashPattern=1 4;" vertex="1" parent="xBkIFKBq-N3a4EHUcWVp-1">
          <mxGeometry y="260" width="170" height="26" as="geometry" />
        </mxCell>
        <mxCell id="63bouKpKImv6Q-pQvR82-55" value="+ external_relations: JSON" style="text;strokeColor=default;fillColor=none;align=left;verticalAlign=top;spacingLeft=4;spacingRight=4;overflow=hidden;rotatable=0;points=[[0,0.5],[1,0.5]];portConstraint=eastwest;dashed=1;dashPattern=1 4;" vertex="1" parent="xBkIFKBq-N3a4EHUcWVp-1">
          <mxGeometry y="286" width="170" height="26" as="geometry" />
        </mxCell>
        <mxCell id="63bouKpKImv6Q-pQvR82-56" value="+ hashes: JSON" style="text;strokeColor=default;fillColor=none;align=left;verticalAlign=top;spacingLeft=4;spacingRight=4;overflow=hidden;rotatable=0;points=[[0,0.5],[1,0.5]];portConstraint=eastwest;dashed=1;dashPattern=1 4;" vertex="1" parent="xBkIFKBq-N3a4EHUcWVp-1">
          <mxGeometry y="312" width="170" height="26" as="geometry" />
        </mxCell>
        <mxCell id="63bouKpKImv6Q-pQvR82-54" value="+ object_type: Enum" style="text;strokeColor=default;fillColor=none;align=left;verticalAlign=top;spacingLeft=4;spacingRight=4;overflow=hidden;rotatable=0;points=[[0,0.5],[1,0.5]];portConstraint=eastwest;fontColor=default;fontStyle=0;dashed=1;dashPattern=1 4;" vertex="1" parent="xBkIFKBq-N3a4EHUcWVp-1">
          <mxGeometry y="338" width="170" height="26" as="geometry" />
        </mxCell>
        <mxCell id="63bouKpKImv6Q-pQvR82-57" value="+ dynamic: Boolean" style="text;strokeColor=default;fillColor=none;align=left;verticalAlign=top;spacingLeft=4;spacingRight=4;overflow=hidden;rotatable=0;points=[[0,0.5],[1,0.5]];portConstraint=eastwest;dashed=1;dashPattern=1 4;" vertex="1" parent="xBkIFKBq-N3a4EHUcWVp-1">
          <mxGeometry y="364" width="170" height="26" as="geometry" />
        </mxCell>
        <mxCell id="63bouKpKImv6Q-pQvR82-58" value="+ endpoints: JSON" style="text;strokeColor=default;fillColor=none;align=left;verticalAlign=top;spacingLeft=4;spacingRight=4;overflow=hidden;rotatable=0;points=[[0,0.5],[1,0.5]];portConstraint=eastwest;dashed=1;dashPattern=1 4;" vertex="1" parent="xBkIFKBq-N3a4EHUcWVp-1">
          <mxGeometry y="390" width="170" height="26" as="geometry" />
        </mxCell>
        <mxCell id="xBkIFKBq-N3a4EHUcWVp-10" value="+ created_by: UUID" style="text;strokeColor=default;fillColor=none;align=left;verticalAlign=top;spacingLeft=4;spacingRight=4;overflow=hidden;rotatable=0;points=[[0,0.5],[1,0.5]];portConstraint=eastwest;fontColor=#999900;fontStyle=1;dashed=1;dashPattern=1 4;" parent="xBkIFKBq-N3a4EHUcWVp-1" vertex="1">
          <mxGeometry y="416" width="170" height="26" as="geometry" />
        </mxCell>
        <mxCell id="xBkIFKBq-N3a4EHUcWVp-11" value="+ metadata_license: UUID" style="text;strokeColor=default;fillColor=none;align=left;verticalAlign=top;spacingLeft=4;spacingRight=4;overflow=hidden;rotatable=0;points=[[0,0.5],[1,0.5]];portConstraint=eastwest;fontColor=#999900;fontStyle=1;dashed=1;dashPattern=1 4;" parent="xBkIFKBq-N3a4EHUcWVp-1" vertex="1">
          <mxGeometry y="442" width="170" height="26" as="geometry" />
        </mxCell>
        <mxCell id="xBkIFKBq-N3a4EHUcWVp-12" value="+ data_license: UUID" style="text;strokeColor=default;fillColor=none;align=left;verticalAlign=top;spacingLeft=4;spacingRight=4;overflow=hidden;rotatable=0;points=[[0,0.5],[1,0.5]];portConstraint=eastwest;fontColor=#999900;fontStyle=1;dashed=1;dashPattern=1 4;" parent="xBkIFKBq-N3a4EHUcWVp-1" vertex="1">
          <mxGeometry y="468" width="170" height="26" as="geometry" />
        </mxCell>
        <mxCell id="xBkIFKBq-N3a4EHUcWVp-13" value="users" style="swimlane;fontStyle=1;childLayout=stackLayout;horizontal=1;startSize=26;fillColor=none;horizontalStack=0;resizeParent=1;resizeParentMax=0;resizeLast=0;collapsible=1;marginBottom=0;" parent="1" vertex="1">
          <mxGeometry x="745" y="-1115" width="170" height="182" as="geometry" />
        </mxCell>
        <mxCell id="xBkIFKBq-N3a4EHUcWVp-14" value="+ id: UUID v4" style="text;strokeColor=default;fillColor=none;align=left;verticalAlign=top;spacingLeft=4;spacingRight=4;overflow=hidden;rotatable=0;points=[[0,0.5],[1,0.5]];portConstraint=eastwest;fontColor=#006633;fontStyle=1;dashed=1;dashPattern=1 4;" parent="xBkIFKBq-N3a4EHUcWVp-13" vertex="1">
          <mxGeometry y="26" width="170" height="26" as="geometry" />
        </mxCell>
        <mxCell id="xBkIFKBq-N3a4EHUcWVp-15" value="+ display_name: String" style="text;strokeColor=default;fillColor=none;align=left;verticalAlign=top;spacingLeft=4;spacingRight=4;overflow=hidden;rotatable=0;points=[[0,0.5],[1,0.5]];portConstraint=eastwest;dashed=1;dashPattern=1 4;" parent="xBkIFKBq-N3a4EHUcWVp-13" vertex="1">
          <mxGeometry y="52" width="170" height="26" as="geometry" />
        </mxCell>
        <mxCell id="xBkIFKBq-N3a4EHUcWVp-17" value="+ email: Varchar (511)" style="text;strokeColor=default;fillColor=none;align=left;verticalAlign=top;spacingLeft=4;spacingRight=4;overflow=hidden;rotatable=0;points=[[0,0.5],[1,0.5]];portConstraint=eastwest;dashed=1;dashPattern=1 4;" parent="xBkIFKBq-N3a4EHUcWVp-13" vertex="1">
          <mxGeometry y="78" width="170" height="26" as="geometry" />
        </mxCell>
        <mxCell id="xBkIFKBq-N3a4EHUcWVp-133" value="+ external_id: Varchar (511)" style="text;strokeColor=default;fillColor=none;align=left;verticalAlign=top;spacingLeft=4;spacingRight=4;overflow=hidden;rotatable=0;points=[[0,0.5],[1,0.5]];portConstraint=eastwest;dashed=1;dashPattern=1 4;" parent="xBkIFKBq-N3a4EHUcWVp-13" vertex="1">
          <mxGeometry y="104" width="170" height="26" as="geometry" />
        </mxCell>
        <mxCell id="xBkIFKBq-N3a4EHUcWVp-21" value="+ attributes: JSON" style="text;strokeColor=default;fillColor=none;align=left;verticalAlign=top;spacingLeft=4;spacingRight=4;overflow=hidden;rotatable=0;points=[[0,0.5],[1,0.5]];portConstraint=eastwest;dashed=1;dashPattern=1 4;" parent="xBkIFKBq-N3a4EHUcWVp-13" vertex="1">
          <mxGeometry y="130" width="170" height="26" as="geometry" />
        </mxCell>
        <mxCell id="63bouKpKImv6Q-pQvR82-16" value="+ active: Boolean" style="text;strokeColor=default;fillColor=none;align=left;verticalAlign=top;spacingLeft=4;spacingRight=4;overflow=hidden;rotatable=0;points=[[0,0.5],[1,0.5]];portConstraint=eastwest;dashed=1;dashPattern=1 4;" vertex="1" parent="xBkIFKBq-N3a4EHUcWVp-13">
          <mxGeometry y="156" width="170" height="26" as="geometry" />
        </mxCell>
        <mxCell id="xBkIFKBq-N3a4EHUcWVp-25" value="licenses" style="swimlane;fontStyle=1;childLayout=stackLayout;horizontal=1;startSize=26;fillColor=none;horizontalStack=0;resizeParent=1;resizeParentMax=0;resizeLast=0;collapsible=1;marginBottom=0;" parent="1" vertex="1">
          <mxGeometry x="1400" y="-1077" width="170" height="130" as="geometry" />
        </mxCell>
        <mxCell id="xBkIFKBq-N3a4EHUcWVp-26" value="+ tag: Varchar (511)" style="text;strokeColor=default;fillColor=none;align=left;verticalAlign=top;spacingLeft=4;spacingRight=4;overflow=hidden;rotatable=0;points=[[0,0.5],[1,0.5]];portConstraint=eastwest;fontColor=#006633;fontStyle=1;dashed=1;dashPattern=1 4;" parent="xBkIFKBq-N3a4EHUcWVp-25" vertex="1">
          <mxGeometry y="26" width="170" height="26" as="geometry" />
        </mxCell>
        <mxCell id="63bouKpKImv6Q-pQvR82-43" value="+ name: Varchar (511)" style="text;strokeColor=default;fillColor=none;align=left;verticalAlign=top;spacingLeft=4;spacingRight=4;overflow=hidden;rotatable=0;points=[[0,0.5],[1,0.5]];portConstraint=eastwest;dashed=1;dashPattern=1 4;" vertex="1" parent="xBkIFKBq-N3a4EHUcWVp-25">
          <mxGeometry y="52" width="170" height="26" as="geometry" />
        </mxCell>
        <mxCell id="63bouKpKImv6Q-pQvR82-44" value="+ description: Varchar (1023)" style="text;strokeColor=default;fillColor=none;align=left;verticalAlign=top;spacingLeft=4;spacingRight=4;overflow=hidden;rotatable=0;points=[[0,0.5],[1,0.5]];portConstraint=eastwest;fontColor=default;fontStyle=0;dashed=1;dashPattern=1 4;" vertex="1" parent="xBkIFKBq-N3a4EHUcWVp-25">
          <mxGeometry y="78" width="170" height="26" as="geometry" />
        </mxCell>
        <mxCell id="63bouKpKImv6Q-pQvR82-45" value="+ url: Varchar (511)" style="text;strokeColor=default;fillColor=none;align=left;verticalAlign=top;spacingLeft=4;spacingRight=4;overflow=hidden;rotatable=0;points=[[0,0.5],[1,0.5]];portConstraint=eastwest;dashed=1;dashPattern=1 4;" vertex="1" parent="xBkIFKBq-N3a4EHUcWVp-25">
          <mxGeometry y="104" width="170" height="26" as="geometry" />
        </mxCell>
        <mxCell id="xBkIFKBq-N3a4EHUcWVp-37" value="endpoints" style="swimlane;fontStyle=1;childLayout=stackLayout;horizontal=1;startSize=26;fillColor=none;horizontalStack=0;resizeParent=1;resizeParentMax=0;resizeLast=0;collapsible=1;marginBottom=0;" parent="1" vertex="1">
          <mxGeometry x="1400" y="-1568" width="200" height="208" as="geometry" />
        </mxCell>
        <mxCell id="xBkIFKBq-N3a4EHUcWVp-38" value="+ id: UUID v4" style="text;strokeColor=default;fillColor=none;align=left;verticalAlign=top;spacingLeft=4;spacingRight=4;overflow=hidden;rotatable=0;points=[[0,0.5],[1,0.5]];portConstraint=eastwest;fontColor=#006633;fontStyle=1;dashed=1;dashPattern=1 4;" parent="xBkIFKBq-N3a4EHUcWVp-37" vertex="1">
          <mxGeometry y="26" width="200" height="26" as="geometry" />
        </mxCell>
        <mxCell id="xBkIFKBq-N3a4EHUcWVp-41" value="+ name: String" style="text;strokeColor=default;fillColor=none;align=left;verticalAlign=top;spacingLeft=4;spacingRight=4;overflow=hidden;rotatable=0;points=[[0,0.5],[1,0.5]];portConstraint=eastwest;dashed=1;dashPattern=1 4;" parent="xBkIFKBq-N3a4EHUcWVp-37" vertex="1">
          <mxGeometry y="52" width="200" height="26" as="geometry" />
        </mxCell>
        <mxCell id="63bouKpKImv6Q-pQvR82-59" value="+ host_config: JSON" style="text;strokeColor=default;fillColor=none;align=left;verticalAlign=top;spacingLeft=4;spacingRight=4;overflow=hidden;rotatable=0;points=[[0,0.5],[1,0.5]];portConstraint=eastwest;dashed=1;dashPattern=1 4;" vertex="1" parent="xBkIFKBq-N3a4EHUcWVp-37">
          <mxGeometry y="78" width="200" height="26" as="geometry" />
        </mxCell>
        <mxCell id="63bouKpKImv6Q-pQvR82-60" value="+ endpoint_variant: Enum" style="text;strokeColor=default;fillColor=none;align=left;verticalAlign=top;spacingLeft=4;spacingRight=4;overflow=hidden;rotatable=0;points=[[0,0.5],[1,0.5]];portConstraint=eastwest;fontColor=default;fontStyle=0;dashed=1;dashPattern=1 4;" vertex="1" parent="xBkIFKBq-N3a4EHUcWVp-37">
          <mxGeometry y="104" width="200" height="26" as="geometry" />
        </mxCell>
        <mxCell id="63bouKpKImv6Q-pQvR82-61" value="+ is_public: Boolean" style="text;strokeColor=default;fillColor=none;align=left;verticalAlign=top;spacingLeft=4;spacingRight=4;overflow=hidden;rotatable=0;points=[[0,0.5],[1,0.5]];portConstraint=eastwest;dashed=1;dashPattern=1 4;" vertex="1" parent="xBkIFKBq-N3a4EHUcWVp-37">
          <mxGeometry y="130" width="200" height="26" as="geometry" />
        </mxCell>
        <mxCell id="63bouKpKImv6Q-pQvR82-62" value="+ status: Enum" style="text;strokeColor=default;fillColor=none;align=left;verticalAlign=top;spacingLeft=4;spacingRight=4;overflow=hidden;rotatable=0;points=[[0,0.5],[1,0.5]];portConstraint=eastwest;fontColor=default;fontStyle=0;dashed=1;dashPattern=1 4;" vertex="1" parent="xBkIFKBq-N3a4EHUcWVp-37">
          <mxGeometry y="156" width="200" height="26" as="geometry" />
        </mxCell>
        <mxCell id="xBkIFKBq-N3a4EHUcWVp-46" value="+ documentation_object: UUID" style="text;strokeColor=default;fillColor=none;align=left;verticalAlign=top;spacingLeft=4;spacingRight=4;overflow=hidden;rotatable=0;points=[[0,0.5],[1,0.5]];portConstraint=eastwest;fontColor=#999900;fontStyle=1;dashed=1;dashPattern=1 4;" parent="xBkIFKBq-N3a4EHUcWVp-37" vertex="1">
          <mxGeometry y="182" width="200" height="26" as="geometry" />
        </mxCell>
        <mxCell id="xBkIFKBq-N3a4EHUcWVp-49" value="relation_types" style="swimlane;fontStyle=1;childLayout=stackLayout;horizontal=1;startSize=26;fillColor=none;horizontalStack=0;resizeParent=1;resizeParentMax=0;resizeLast=0;collapsible=1;marginBottom=0;" parent="1" vertex="1">
          <mxGeometry x="1720" y="-1273" width="190" height="52" as="geometry" />
        </mxCell>
        <mxCell id="xBkIFKBq-N3a4EHUcWVp-50" value="+ relation_name: Varchar (511)" style="text;strokeColor=default;fillColor=none;align=left;verticalAlign=top;spacingLeft=4;spacingRight=4;overflow=hidden;rotatable=0;points=[[0,0.5],[1,0.5]];portConstraint=eastwest;fontColor=#006633;fontStyle=1;dashed=1;dashPattern=1 4;" parent="xBkIFKBq-N3a4EHUcWVp-49" vertex="1">
          <mxGeometry y="26" width="190" height="26" as="geometry" />
        </mxCell>
        <mxCell id="xBkIFKBq-N3a4EHUcWVp-61" value="internal_relations" style="swimlane;fontStyle=1;childLayout=stackLayout;horizontal=1;startSize=26;fillColor=none;horizontalStack=0;resizeParent=1;resizeParentMax=0;resizeLast=0;collapsible=1;marginBottom=0;" parent="1" vertex="1">
          <mxGeometry x="1400" y="-1323" width="190" height="208" as="geometry" />
        </mxCell>
        <mxCell id="xBkIFKBq-N3a4EHUcWVp-62" value="+ id: UUID v4" style="text;strokeColor=default;fillColor=none;align=left;verticalAlign=top;spacingLeft=4;spacingRight=4;overflow=hidden;rotatable=0;points=[[0,0.5],[1,0.5]];portConstraint=eastwest;fontColor=#006633;fontStyle=1;dashed=1;dashPattern=1 4;" parent="xBkIFKBq-N3a4EHUcWVp-61" vertex="1">
          <mxGeometry y="26" width="190" height="26" as="geometry" />
        </mxCell>
        <mxCell id="xBkIFKBq-N3a4EHUcWVp-63" value="+ target_name: Varchar (511)" style="text;strokeColor=default;fillColor=none;align=left;verticalAlign=top;spacingLeft=4;spacingRight=4;overflow=hidden;rotatable=0;points=[[0,0.5],[1,0.5]];portConstraint=eastwest;dashed=1;dashPattern=1 4;" parent="xBkIFKBq-N3a4EHUcWVp-61" vertex="1">
          <mxGeometry y="52" width="190" height="26" as="geometry" />
        </mxCell>
        <mxCell id="xBkIFKBq-N3a4EHUcWVp-70" value="+ relation_name: Varchar (511)" style="text;strokeColor=default;fillColor=none;align=left;verticalAlign=top;spacingLeft=4;spacingRight=4;overflow=hidden;rotatable=0;points=[[0,0.5],[1,0.5]];portConstraint=eastwest;fontColor=#999900;fontStyle=1;dashed=1;dashPattern=1 4;" parent="xBkIFKBq-N3a4EHUcWVp-61" vertex="1">
          <mxGeometry y="78" width="190" height="26" as="geometry" />
        </mxCell>
        <mxCell id="xBkIFKBq-N3a4EHUcWVp-71" value="+ origin_pid: UUID" style="text;strokeColor=default;fillColor=none;align=left;verticalAlign=top;spacingLeft=4;spacingRight=4;overflow=hidden;rotatable=0;points=[[0,0.5],[1,0.5]];portConstraint=eastwest;fontColor=#999900;fontStyle=1;dashed=1;dashPattern=1 4;" parent="xBkIFKBq-N3a4EHUcWVp-61" vertex="1">
          <mxGeometry y="104" width="190" height="26" as="geometry" />
        </mxCell>
        <mxCell id="63bouKpKImv6Q-pQvR82-63" value="+ target_pid: UUID" style="text;strokeColor=default;fillColor=none;align=left;verticalAlign=top;spacingLeft=4;spacingRight=4;overflow=hidden;rotatable=0;points=[[0,0.5],[1,0.5]];portConstraint=eastwest;fontColor=#999900;fontStyle=1;dashed=1;dashPattern=1 4;" vertex="1" parent="xBkIFKBq-N3a4EHUcWVp-61">
          <mxGeometry y="130" width="190" height="26" as="geometry" />
        </mxCell>
        <mxCell id="xBkIFKBq-N3a4EHUcWVp-72" value="+ origin_type: Enum" style="text;strokeColor=default;fillColor=none;align=left;verticalAlign=top;spacingLeft=4;spacingRight=4;overflow=hidden;rotatable=0;points=[[0,0.5],[1,0.5]];portConstraint=eastwest;fontColor=#999900;fontStyle=1;dashed=1;dashPattern=1 4;" parent="xBkIFKBq-N3a4EHUcWVp-61" vertex="1">
          <mxGeometry y="156" width="190" height="26" as="geometry" />
        </mxCell>
        <mxCell id="63bouKpKImv6Q-pQvR82-64" value="+ target_type: Enum" style="text;strokeColor=default;fillColor=none;align=left;verticalAlign=top;spacingLeft=4;spacingRight=4;overflow=hidden;rotatable=0;points=[[0,0.5],[1,0.5]];portConstraint=eastwest;fontColor=#999900;fontStyle=1;dashed=1;dashPattern=1 4;" vertex="1" parent="xBkIFKBq-N3a4EHUcWVp-61">
          <mxGeometry y="182" width="190" height="26" as="geometry" />
        </mxCell>
        <mxCell id="xBkIFKBq-N3a4EHUcWVp-73" value="stream_consumers" style="swimlane;fontStyle=1;childLayout=stackLayout;horizontal=1;startSize=26;fillColor=none;horizontalStack=0;resizeParent=1;resizeParentMax=0;resizeLast=0;collapsible=1;marginBottom=0;" parent="1" vertex="1">
          <mxGeometry x="319" y="-1284" width="170" height="104" as="geometry" />
        </mxCell>
        <mxCell id="xBkIFKBq-N3a4EHUcWVp-74" value="+ id: UUID v4" style="text;strokeColor=default;fillColor=none;align=left;verticalAlign=top;spacingLeft=4;spacingRight=4;overflow=hidden;rotatable=0;points=[[0,0.5],[1,0.5]];portConstraint=eastwest;fontColor=#006633;fontStyle=1;dashed=1;dashPattern=1 4;" parent="xBkIFKBq-N3a4EHUcWVp-73" vertex="1">
          <mxGeometry y="26" width="170" height="26" as="geometry" />
        </mxCell>
        <mxCell id="63bouKpKImv6Q-pQvR82-18" value="+ config: JSON" style="text;strokeColor=default;fillColor=none;align=left;verticalAlign=top;spacingLeft=4;spacingRight=4;overflow=hidden;rotatable=0;points=[[0,0.5],[1,0.5]];portConstraint=eastwest;dashed=1;dashPattern=1 4;" vertex="1" parent="xBkIFKBq-N3a4EHUcWVp-73">
          <mxGeometry y="52" width="170" height="26" as="geometry" />
        </mxCell>
        <mxCell id="63bouKpKImv6Q-pQvR82-17" value="+ user_id: UUID" style="text;strokeColor=default;fillColor=none;align=left;verticalAlign=top;spacingLeft=4;spacingRight=4;overflow=hidden;rotatable=0;points=[[0,0.5],[1,0.5]];portConstraint=eastwest;fontColor=#999900;fontStyle=1;dashed=1;dashPattern=1 4;" vertex="1" parent="xBkIFKBq-N3a4EHUcWVp-73">
          <mxGeometry y="78" width="170" height="26" as="geometry" />
        </mxCell>
        <mxCell id="xBkIFKBq-N3a4EHUcWVp-85" value="persistent_notifications" style="swimlane;fontStyle=1;childLayout=stackLayout;horizontal=1;startSize=26;fillColor=none;horizontalStack=0;resizeParent=1;resizeParentMax=0;resizeLast=0;collapsible=1;marginBottom=0;" parent="1" vertex="1">
          <mxGeometry x="199" y="-1506" width="290" height="182" as="geometry" />
        </mxCell>
        <mxCell id="xBkIFKBq-N3a4EHUcWVp-86" value="+ id: UUID v4" style="text;strokeColor=default;fillColor=none;align=left;verticalAlign=top;spacingLeft=4;spacingRight=4;overflow=hidden;rotatable=0;points=[[0,0.5],[1,0.5]];portConstraint=eastwest;fontColor=#006633;fontStyle=1;dashed=1;dashPattern=1 4;" parent="xBkIFKBq-N3a4EHUcWVp-85" vertex="1">
          <mxGeometry y="26" width="290" height="26" as="geometry" />
        </mxCell>
        <mxCell id="xBkIFKBq-N3a4EHUcWVp-88" value="+ notification_variant: Enum" style="text;strokeColor=default;fillColor=none;align=left;verticalAlign=top;spacingLeft=4;spacingRight=4;overflow=hidden;rotatable=0;points=[[0,0.5],[1,0.5]];portConstraint=eastwest;fontColor=default;fontStyle=0;dashed=1;dashPattern=1 4;" parent="xBkIFKBq-N3a4EHUcWVp-85" vertex="1">
          <mxGeometry y="52" width="290" height="26" as="geometry" />
        </mxCell>
        <mxCell id="xBkIFKBq-N3a4EHUcWVp-89" value="+ message: String" style="text;strokeColor=default;fillColor=none;align=left;verticalAlign=top;spacingLeft=4;spacingRight=4;overflow=hidden;rotatable=0;points=[[0,0.5],[1,0.5]];portConstraint=eastwest;dashed=1;dashPattern=1 4;" parent="xBkIFKBq-N3a4EHUcWVp-85" vertex="1">
          <mxGeometry y="78" width="290" height="26" as="geometry" />
        </mxCell>
        <mxCell id="xBkIFKBq-N3a4EHUcWVp-90" value="+ content_len: UInt64" style="text;strokeColor=default;fillColor=none;align=left;verticalAlign=top;spacingLeft=4;spacingRight=4;overflow=hidden;rotatable=0;points=[[0,0.5],[1,0.5]];portConstraint=eastwest;dashed=1;dashPattern=1 4;" parent="xBkIFKBq-N3a4EHUcWVp-85" vertex="1">
          <mxGeometry y="104" width="290" height="26" as="geometry" />
        </mxCell>
        <mxCell id="xBkIFKBq-N3a4EHUcWVp-91" value="+ refs: JSON" style="text;strokeColor=default;fillColor=none;align=left;verticalAlign=top;spacingLeft=4;spacingRight=4;overflow=hidden;rotatable=0;points=[[0,0.5],[1,0.5]];portConstraint=eastwest;dashed=1;dashPattern=1 4;" parent="xBkIFKBq-N3a4EHUcWVp-85" vertex="1">
          <mxGeometry y="130" width="290" height="26" as="geometry" />
        </mxCell>
        <mxCell id="xBkIFKBq-N3a4EHUcWVp-94" value="+ user_id: UUID" style="text;strokeColor=default;fillColor=none;align=left;verticalAlign=top;spacingLeft=4;spacingRight=4;overflow=hidden;rotatable=0;points=[[0,0.5],[1,0.5]];portConstraint=eastwest;fontColor=#999900;fontStyle=1;dashed=1;dashPattern=1 4;" parent="xBkIFKBq-N3a4EHUcWVp-85" vertex="1">
          <mxGeometry y="156" width="290" height="26" as="geometry" />
        </mxCell>
        <mxCell id="xBkIFKBq-N3a4EHUcWVp-109" value="hooks" style="swimlane;fontStyle=1;childLayout=stackLayout;horizontal=1;startSize=26;fillColor=none;horizontalStack=0;resizeParent=1;resizeParentMax=0;resizeLast=0;collapsible=1;marginBottom=0;" parent="1" vertex="1">
          <mxGeometry x="309" y="-892" width="180" height="234" as="geometry" />
        </mxCell>
        <mxCell id="xBkIFKBq-N3a4EHUcWVp-110" value="+ id: UUID v4" style="text;strokeColor=default;fillColor=none;align=left;verticalAlign=top;spacingLeft=4;spacingRight=4;overflow=hidden;rotatable=0;points=[[0,0.5],[1,0.5]];portConstraint=eastwest;fontColor=#006633;fontStyle=1;dashed=1;dashPattern=1 4;" parent="xBkIFKBq-N3a4EHUcWVp-109" vertex="1">
          <mxGeometry y="26" width="180" height="26" as="geometry" />
        </mxCell>
        <mxCell id="63bouKpKImv6Q-pQvR82-19" value="+ name: Varchar (511)" style="text;strokeColor=default;fillColor=none;align=left;verticalAlign=top;spacingLeft=4;spacingRight=4;overflow=hidden;rotatable=0;points=[[0,0.5],[1,0.5]];portConstraint=eastwest;dashed=1;dashPattern=1 4;" vertex="1" parent="xBkIFKBq-N3a4EHUcWVp-109">
          <mxGeometry y="52" width="180" height="26" as="geometry" />
        </mxCell>
        <mxCell id="63bouKpKImv6Q-pQvR82-21" value="+ description: Varchar (1023)" style="text;strokeColor=default;fillColor=none;align=left;verticalAlign=top;spacingLeft=4;spacingRight=4;overflow=hidden;rotatable=0;points=[[0,0.5],[1,0.5]];portConstraint=eastwest;fontColor=default;fontStyle=0;dashed=1;dashPattern=1 4;" vertex="1" parent="xBkIFKBq-N3a4EHUcWVp-109">
          <mxGeometry y="78" width="180" height="26" as="geometry" />
        </mxCell>
        <mxCell id="63bouKpKImv6Q-pQvR82-22" value="+ project_ids: UUID v4 [ ]" style="text;strokeColor=default;fillColor=none;align=left;verticalAlign=top;spacingLeft=4;spacingRight=4;overflow=hidden;rotatable=0;points=[[0,0.5],[1,0.5]];portConstraint=eastwest;fontColor=default;fontStyle=0;dashed=1;dashPattern=1 4;" vertex="1" parent="xBkIFKBq-N3a4EHUcWVp-109">
          <mxGeometry y="104" width="180" height="26" as="geometry" />
        </mxCell>
        <mxCell id="63bouKpKImv6Q-pQvR82-23" value="+ trigger: JSON" style="text;strokeColor=default;fillColor=none;align=left;verticalAlign=top;spacingLeft=4;spacingRight=4;overflow=hidden;rotatable=0;points=[[0,0.5],[1,0.5]];portConstraint=eastwest;fontColor=default;fontStyle=0;dashed=1;dashPattern=1 4;" vertex="1" parent="xBkIFKBq-N3a4EHUcWVp-109">
          <mxGeometry y="130" width="180" height="26" as="geometry" />
        </mxCell>
        <mxCell id="63bouKpKImv6Q-pQvR82-27" value="+ hook: JSON" style="text;strokeColor=default;fillColor=none;align=left;verticalAlign=top;spacingLeft=4;spacingRight=4;overflow=hidden;rotatable=0;points=[[0,0.5],[1,0.5]];portConstraint=eastwest;dashed=1;dashPattern=1 4;" vertex="1" parent="xBkIFKBq-N3a4EHUcWVp-109">
          <mxGeometry y="156" width="180" height="26" as="geometry" />
        </mxCell>
        <mxCell id="63bouKpKImv6Q-pQvR82-86" value="+ timeout: Timestamp" style="text;strokeColor=default;fillColor=none;align=left;verticalAlign=top;spacingLeft=4;spacingRight=4;overflow=hidden;rotatable=0;points=[[0,0.5],[1,0.5]];portConstraint=eastwest;dashed=1;dashPattern=1 4;" vertex="1" parent="xBkIFKBq-N3a4EHUcWVp-109">
          <mxGeometry y="182" width="180" height="26" as="geometry" />
        </mxCell>
        <mxCell id="63bouKpKImv6Q-pQvR82-20" value="+ owner: UUID" style="text;strokeColor=default;fillColor=none;align=left;verticalAlign=top;spacingLeft=4;spacingRight=4;overflow=hidden;rotatable=0;points=[[0,0.5],[1,0.5]];portConstraint=eastwest;fontColor=#999900;fontStyle=1;dashed=1;dashPattern=1 4;" vertex="1" parent="xBkIFKBq-N3a4EHUcWVp-109">
          <mxGeometry y="208" width="180" height="26" as="geometry" />
        </mxCell>
        <mxCell id="xBkIFKBq-N3a4EHUcWVp-121" value="workspaces" style="swimlane;fontStyle=1;childLayout=stackLayout;horizontal=1;startSize=26;fillColor=none;horizontalStack=0;resizeParent=1;resizeParentMax=0;resizeLast=0;collapsible=1;marginBottom=0;" parent="1" vertex="1">
          <mxGeometry x="319" y="-1141" width="170" height="208" as="geometry" />
        </mxCell>
        <mxCell id="xBkIFKBq-N3a4EHUcWVp-122" value="+ id: UUID v4" style="text;strokeColor=default;fillColor=none;align=left;verticalAlign=top;spacingLeft=4;spacingRight=4;overflow=hidden;rotatable=0;points=[[0,0.5],[1,0.5]];portConstraint=eastwest;fontColor=#006633;fontStyle=1;dashed=1;dashPattern=1 4;" parent="xBkIFKBq-N3a4EHUcWVp-121" vertex="1">
          <mxGeometry y="26" width="170" height="26" as="geometry" />
        </mxCell>
        <mxCell id="xBkIFKBq-N3a4EHUcWVp-123" value="+ name: Varchar (511)" style="text;strokeColor=default;fillColor=none;align=left;verticalAlign=top;spacingLeft=4;spacingRight=4;overflow=hidden;rotatable=0;points=[[0,0.5],[1,0.5]];portConstraint=eastwest;dashed=1;dashPattern=1 4;" parent="xBkIFKBq-N3a4EHUcWVp-121" vertex="1">
          <mxGeometry y="52" width="170" height="26" as="geometry" />
        </mxCell>
        <mxCell id="xBkIFKBq-N3a4EHUcWVp-124" value="+ description: Varchar (1023)" style="text;strokeColor=default;fillColor=none;align=left;verticalAlign=top;spacingLeft=4;spacingRight=4;overflow=hidden;rotatable=0;points=[[0,0.5],[1,0.5]];portConstraint=eastwest;fontColor=default;fontStyle=0;dashed=1;dashPattern=1 4;" parent="xBkIFKBq-N3a4EHUcWVp-121" vertex="1">
          <mxGeometry y="78" width="170" height="26" as="geometry" />
        </mxCell>
        <mxCell id="xBkIFKBq-N3a4EHUcWVp-125" value="+ prefix: Varchar (511)" style="text;strokeColor=default;fillColor=none;align=left;verticalAlign=top;spacingLeft=4;spacingRight=4;overflow=hidden;rotatable=0;points=[[0,0.5],[1,0.5]];portConstraint=eastwest;dashed=1;dashPattern=1 4;" parent="xBkIFKBq-N3a4EHUcWVp-121" vertex="1">
          <mxGeometry y="104" width="170" height="26" as="geometry" />
        </mxCell>
        <mxCell id="xBkIFKBq-N3a4EHUcWVp-126" value="+ hook_ids: JSON" style="text;strokeColor=default;fillColor=none;align=left;verticalAlign=top;spacingLeft=4;spacingRight=4;overflow=hidden;rotatable=0;points=[[0,0.5],[1,0.5]];portConstraint=eastwest;dashed=1;dashPattern=1 4;" parent="xBkIFKBq-N3a4EHUcWVp-121" vertex="1">
          <mxGeometry y="130" width="170" height="26" as="geometry" />
        </mxCell>
        <mxCell id="xBkIFKBq-N3a4EHUcWVp-127" value="+ endpoint_ids: JSON" style="text;strokeColor=default;fillColor=none;align=left;verticalAlign=top;spacingLeft=4;spacingRight=4;overflow=hidden;rotatable=0;points=[[0,0.5],[1,0.5]];portConstraint=eastwest;dashed=1;dashPattern=1 4;" parent="xBkIFKBq-N3a4EHUcWVp-121" vertex="1">
          <mxGeometry y="156" width="170" height="26" as="geometry" />
        </mxCell>
        <mxCell id="xBkIFKBq-N3a4EHUcWVp-130" value="+ owner: UUID" style="text;strokeColor=default;fillColor=none;align=left;verticalAlign=top;spacingLeft=4;spacingRight=4;overflow=hidden;rotatable=0;points=[[0,0.5],[1,0.5]];portConstraint=eastwest;fontColor=#999900;fontStyle=1;dashed=1;dashPattern=1 4;" parent="xBkIFKBq-N3a4EHUcWVp-121" vertex="1">
          <mxGeometry y="182" width="170" height="26" as="geometry" />
        </mxCell>
        <mxCell id="63bouKpKImv6Q-pQvR82-13" value="pub_keys" style="swimlane;fontStyle=1;childLayout=stackLayout;horizontal=1;startSize=26;fillColor=none;horizontalStack=0;resizeParent=1;resizeParentMax=0;resizeLast=0;collapsible=1;marginBottom=0;" vertex="1" parent="1">
          <mxGeometry x="1720" y="-1620" width="160" height="104" as="geometry">
            <mxRectangle x="80" y="40" width="100" height="30" as="alternateBounds" />
          </mxGeometry>
        </mxCell>
        <mxCell id="63bouKpKImv6Q-pQvR82-14" value="+ id: Serial" style="text;strokeColor=default;fillColor=none;align=left;verticalAlign=top;spacingLeft=4;spacingRight=4;overflow=hidden;rotatable=0;points=[[0,0.5],[1,0.5]];portConstraint=eastwest;fontColor=#006633;fontStyle=1;dashed=1;dashPattern=1 4;" vertex="1" parent="63bouKpKImv6Q-pQvR82-13">
          <mxGeometry y="26" width="160" height="26" as="geometry" />
        </mxCell>
        <mxCell id="63bouKpKImv6Q-pQvR82-15" value="+ public_key: String" style="text;strokeColor=default;fillColor=none;align=left;verticalAlign=top;spacingLeft=4;spacingRight=4;overflow=hidden;rotatable=0;points=[[0,0.5],[1,0.5]];portConstraint=eastwest;dashed=1;dashPattern=1 4;" vertex="1" parent="63bouKpKImv6Q-pQvR82-13">
          <mxGeometry y="52" width="160" height="26" as="geometry" />
        </mxCell>
        <mxCell id="63bouKpKImv6Q-pQvR82-29" value="+ proxy: UUID" style="text;strokeColor=default;fillColor=none;align=left;verticalAlign=top;spacingLeft=4;spacingRight=4;overflow=hidden;rotatable=0;points=[[0,0.5],[1,0.5]];portConstraint=eastwest;fontColor=#999900;fontStyle=1;dashed=1;dashPattern=1 4;" vertex="1" parent="63bouKpKImv6Q-pQvR82-13">
          <mxGeometry y="78" width="160" height="26" as="geometry" />
        </mxCell>
        <mxCell id="63bouKpKImv6Q-pQvR82-66" value="1...n" style="edgeStyle=orthogonalEdgeStyle;rounded=0;orthogonalLoop=1;jettySize=auto;html=1;endArrow=block;endFill=1;sourcePerimeterSpacing=5;targetPerimeterSpacing=5;labelPosition=center;verticalLabelPosition=top;align=center;verticalAlign=bottom;spacingLeft=0;fontSize=16;fontStyle=1;labelBackgroundColor=none;" edge="1" parent="1" source="xBkIFKBq-N3a4EHUcWVp-94" target="xBkIFKBq-N3a4EHUcWVp-14">
          <mxGeometry x="0.8004" relative="1" as="geometry">
            <mxPoint x="620" y="-1426" as="sourcePoint" />
            <mxPoint x="760" y="-1316" as="targetPoint" />
            <Array as="points">
              <mxPoint x="630" y="-1337" />
              <mxPoint x="630" y="-1076" />
            </Array>
            <mxPoint as="offset" />
          </mxGeometry>
        </mxCell>
        <mxCell id="63bouKpKImv6Q-pQvR82-67" value="" style="edgeStyle=orthogonalEdgeStyle;rounded=0;orthogonalLoop=1;jettySize=auto;html=1;endArrow=block;endFill=1;sourcePerimeterSpacing=5;targetPerimeterSpacing=5;labelPosition=center;verticalLabelPosition=top;align=center;verticalAlign=bottom;spacingLeft=0;fontSize=16;fontStyle=1;labelBackgroundColor=none;" edge="1" parent="1" source="63bouKpKImv6Q-pQvR82-17" target="xBkIFKBq-N3a4EHUcWVp-14">
          <mxGeometry x="-0.5806" relative="1" as="geometry">
            <mxPoint x="505" y="-1327" as="sourcePoint" />
            <mxPoint x="735" y="-1106" as="targetPoint" />
            <Array as="points">
              <mxPoint x="630" y="-1196" />
              <mxPoint x="630" y="-1076" />
            </Array>
            <mxPoint as="offset" />
          </mxGeometry>
        </mxCell>
        <mxCell id="63bouKpKImv6Q-pQvR82-69" value="" style="edgeStyle=orthogonalEdgeStyle;rounded=0;orthogonalLoop=1;jettySize=auto;html=1;endArrow=block;endFill=1;sourcePerimeterSpacing=5;targetPerimeterSpacing=5;labelPosition=center;verticalLabelPosition=top;align=center;verticalAlign=bottom;spacingLeft=0;fontSize=16;fontStyle=1;labelBackgroundColor=none;" edge="1" parent="1" source="xBkIFKBq-N3a4EHUcWVp-130" target="xBkIFKBq-N3a4EHUcWVp-14">
          <mxGeometry x="-0.5806" relative="1" as="geometry">
            <mxPoint x="505" y="-1186" as="sourcePoint" />
            <mxPoint x="735" y="-1106" as="targetPoint" />
            <Array as="points">
              <mxPoint x="630" y="-946" />
              <mxPoint x="630" y="-1076" />
            </Array>
            <mxPoint as="offset" />
          </mxGeometry>
        </mxCell>
        <mxCell id="63bouKpKImv6Q-pQvR82-70" value="" style="edgeStyle=orthogonalEdgeStyle;rounded=0;orthogonalLoop=1;jettySize=auto;html=1;endArrow=block;endFill=1;sourcePerimeterSpacing=5;targetPerimeterSpacing=5;labelPosition=center;verticalLabelPosition=top;align=center;verticalAlign=bottom;spacingLeft=0;fontSize=16;fontStyle=1;labelBackgroundColor=none;" edge="1" parent="1" source="63bouKpKImv6Q-pQvR82-20" target="xBkIFKBq-N3a4EHUcWVp-14">
          <mxGeometry x="-0.5806" relative="1" as="geometry">
            <mxPoint x="505" y="-1092" as="sourcePoint" />
            <mxPoint x="735" y="-1106" as="targetPoint" />
            <Array as="points">
              <mxPoint x="630" y="-670" />
              <mxPoint x="630" y="-1076" />
            </Array>
            <mxPoint as="offset" />
          </mxGeometry>
        </mxCell>
        <mxCell id="63bouKpKImv6Q-pQvR82-75" value="1...n" style="edgeStyle=orthogonalEdgeStyle;rounded=0;orthogonalLoop=1;jettySize=auto;html=1;endArrow=none;endFill=0;sourcePerimeterSpacing=5;targetPerimeterSpacing=5;labelPosition=center;verticalLabelPosition=top;align=center;verticalAlign=bottom;spacingLeft=0;fontSize=16;fontStyle=1;labelBackgroundColor=none;startArrow=block;startFill=1;" edge="1" parent="1" source="xBkIFKBq-N3a4EHUcWVp-26" target="xBkIFKBq-N3a4EHUcWVp-11">
          <mxGeometry x="-0.441" relative="1" as="geometry">
            <mxPoint x="1400" y="-1034.0014285714285" as="sourcePoint" />
            <mxPoint x="1250" y="-1060.0014285714285" as="targetPoint" />
            <Array as="points">
              <mxPoint x="1320" y="-1040" />
              <mxPoint x="1320" y="-1051" />
            </Array>
            <mxPoint as="offset" />
          </mxGeometry>
        </mxCell>
        <mxCell id="63bouKpKImv6Q-pQvR82-76" value="" style="edgeStyle=orthogonalEdgeStyle;rounded=0;orthogonalLoop=1;jettySize=auto;html=1;endArrow=none;endFill=0;sourcePerimeterSpacing=5;targetPerimeterSpacing=5;labelPosition=center;verticalLabelPosition=top;align=center;verticalAlign=bottom;spacingLeft=0;fontSize=16;fontStyle=1;labelBackgroundColor=none;startArrow=block;startFill=1;" edge="1" parent="1" source="xBkIFKBq-N3a4EHUcWVp-26" target="xBkIFKBq-N3a4EHUcWVp-12">
          <mxGeometry x="-0.0625" relative="1" as="geometry">
            <mxPoint x="1400" y="-1034.0014285714285" as="sourcePoint" />
            <mxPoint x="1250" y="-1008.0014285714285" as="targetPoint" />
            <Array as="points">
              <mxPoint x="1320" y="-1040" />
              <mxPoint x="1320" y="-1025" />
            </Array>
            <mxPoint as="offset" />
          </mxGeometry>
        </mxCell>
        <mxCell id="63bouKpKImv6Q-pQvR82-79" value="1...n" style="edgeStyle=orthogonalEdgeStyle;rounded=0;orthogonalLoop=1;jettySize=auto;html=1;endArrow=block;endFill=1;sourcePerimeterSpacing=5;targetPerimeterSpacing=5;labelPosition=center;verticalLabelPosition=top;align=center;verticalAlign=bottom;spacingLeft=0;fontSize=16;fontStyle=1;labelBackgroundColor=none;" edge="1" parent="1" source="xBkIFKBq-N3a4EHUcWVp-70" target="xBkIFKBq-N3a4EHUcWVp-50">
          <mxGeometry x="-0.0625" relative="1" as="geometry">
            <mxPoint x="1650" y="-1323" as="sourcePoint" />
            <mxPoint x="1820" y="-1323" as="targetPoint" />
            <Array as="points">
              <mxPoint x="1650" y="-1233" />
              <mxPoint x="1650" y="-1233" />
            </Array>
            <mxPoint as="offset" />
          </mxGeometry>
        </mxCell>
        <mxCell id="63bouKpKImv6Q-pQvR82-80" value="1...n" style="edgeStyle=orthogonalEdgeStyle;rounded=0;orthogonalLoop=1;jettySize=auto;html=1;endArrow=block;endFill=1;sourcePerimeterSpacing=5;targetPerimeterSpacing=5;labelPosition=center;verticalLabelPosition=top;align=center;verticalAlign=bottom;spacingLeft=0;fontSize=16;fontStyle=1;labelBackgroundColor=none;" edge="1" parent="1" source="63bouKpKImv6Q-pQvR82-29" target="xBkIFKBq-N3a4EHUcWVp-38">
          <mxGeometry x="-0.0625" relative="1" as="geometry">
            <mxPoint x="1610" y="-1511" as="sourcePoint" />
            <mxPoint x="1730" y="-1511" as="targetPoint" />
            <Array as="points" />
            <mxPoint as="offset" />
          </mxGeometry>
        </mxCell>
        <mxCell id="63bouKpKImv6Q-pQvR82-72" value="1...n" style="edgeStyle=orthogonalEdgeStyle;rounded=0;orthogonalLoop=1;jettySize=auto;html=1;endArrow=block;endFill=1;sourcePerimeterSpacing=5;targetPerimeterSpacing=5;labelPosition=center;verticalLabelPosition=top;align=center;verticalAlign=bottom;spacingLeft=0;fontSize=16;fontStyle=1;labelBackgroundColor=none;" edge="1" parent="1" source="xBkIFKBq-N3a4EHUcWVp-10" target="xBkIFKBq-N3a4EHUcWVp-14">
          <mxGeometry x="-0.0625" relative="1" as="geometry">
            <mxPoint x="920" y="-1141" as="sourcePoint" />
            <mxPoint x="1150" y="-950" as="targetPoint" />
            <Array as="points" />
            <mxPoint as="offset" />
          </mxGeometry>
        </mxCell>
        <mxCell id="63bouKpKImv6Q-pQvR82-85" value="&lt;p style=&quot;line-height: 120%;&quot;&gt;&lt;font style=&quot;font-size: 24px;&quot;&gt;Primary keys are&amp;nbsp;&lt;font style=&quot;border-color: var(--border-color); font-size: 24px;&quot; color=&quot;#006633&quot;&gt;green&lt;/font&gt;. Foreign key references are&amp;nbsp;&lt;font style=&quot;border-color: var(--border-color); font-size: 24px;&quot; color=&quot;#999900&quot;&gt;yellow&lt;/font&gt;.&lt;/font&gt;&lt;/p&gt;&lt;p style=&quot;line-height: 120%;&quot;&gt;&lt;b style=&quot;background-color: initial; font-size: 18px;&quot;&gt;&lt;u style=&quot;font-size: 24px;&quot;&gt;Type Enums:&lt;/u&gt;&lt;/b&gt;&lt;/p&gt;&lt;p style=&quot;line-height: 120%;&quot;&gt;&lt;b style=&quot;background-color: initial; font-size: 18px;&quot;&gt;&amp;nbsp; Object Type:&amp;nbsp;&lt;/b&gt;&lt;font style=&quot;background-color: initial; font-size: 18px;&quot;&gt;[PROJECT, COLLECTION, DATASET, OBJECT]&lt;/font&gt;&lt;/p&gt;&lt;p style=&quot;line-height: 120%;&quot;&gt;&lt;b style=&quot;font-size: 18px; background-color: initial; border-color: var(--border-color);&quot;&gt;&amp;nbsp; Object Status:&lt;/b&gt;&lt;span style=&quot;font-size: 18px; background-color: initial;&quot;&gt;&amp;nbsp;[INITIALIZING, VALIDATING, AVAILABLE, UNAVAILABLE, ERROR, DELETED]&lt;/span&gt;&lt;/p&gt;&lt;p style=&quot;line-height: 120%;&quot;&gt;&lt;b style=&quot;font-size: 18px; background-color: initial; border-color: var(--border-color);&quot;&gt;&amp;nbsp; Endpoint Variant:&lt;/b&gt;&lt;span style=&quot;font-size: 18px; background-color: initial;&quot;&gt;&amp;nbsp;[PERSISTENT, VOLATILE]&lt;/span&gt;&lt;/p&gt;&lt;p style=&quot;border-color: var(--border-color); line-height: 14.4px;&quot;&gt;&lt;b style=&quot;border-color: var(--border-color); font-size: 18px; background-color: initial;&quot;&gt;&amp;nbsp; Endpoint Status:&lt;/b&gt;&lt;span style=&quot;border-color: var(--border-color); font-size: 18px; background-color: initial;&quot;&gt;&amp;nbsp;[INITIALIZING, AVAILABLE, DEGRADED, UNAVAILABLE, MAINTENANCE]&lt;/span&gt;&lt;/p&gt;&lt;p style=&quot;line-height: 120%;&quot;&gt;&lt;b style=&quot;font-size: 18px; background-color: initial; border-color: var(--border-color);&quot;&gt;&amp;nbsp; Data Class:&lt;/b&gt;&lt;span style=&quot;font-size: 18px; background-color: initial;&quot;&gt;&amp;nbsp;[PUBLIC, PRIVATE, WORKSPACE, CONFIDENTIAL]&lt;/span&gt;&lt;/p&gt;&lt;p style=&quot;line-height: 120%;&quot;&gt;&lt;b style=&quot;background-color: initial; font-size: 18px; border-color: var(--border-color);&quot;&gt;&amp;nbsp; Notification Variant:&lt;/b&gt;&lt;span style=&quot;background-color: initial; border-color: var(--border-color);&quot;&gt;&amp;nbsp;&lt;font style=&quot;font-size: 18px;&quot;&gt;[&lt;/font&gt;&lt;/span&gt;&lt;span style=&quot;background-color: initial; font-size: 18px;&quot;&gt;ACCESS_REQUESTED,&amp;nbsp;&lt;/span&gt;&lt;span style=&quot;font-size: 18px; background-color: initial;&quot;&gt;PERMISSION_REVOKED,&amp;nbsp;&lt;/span&gt;&lt;span style=&quot;font-size: 18px; background-color: initial;&quot;&gt;PERMISSION_GRANTED,&amp;nbsp;&lt;/span&gt;&lt;/p&gt;&lt;p style=&quot;line-height: 120%;&quot;&gt;&lt;span style=&quot;font-size: 18px; background-color: initial;&quot;&gt;&amp;nbsp; &amp;nbsp; &amp;nbsp; &amp;nbsp; &amp;nbsp; &amp;nbsp; &amp;nbsp; &amp;nbsp; &amp;nbsp; &amp;nbsp; &amp;nbsp; &amp;nbsp; &amp;nbsp; &amp;nbsp; &amp;nbsp; &amp;nbsp; &amp;nbsp; &amp;nbsp; &amp;nbsp; PERMISSION_UPDATED,&amp;nbsp;&lt;/span&gt;&lt;span style=&quot;background-color: initial; font-size: 18px;&quot;&gt;ANNOUNCEMENT&lt;/span&gt;&lt;span style=&quot;background-color: initial; font-size: 18px;&quot;&gt;]&lt;/span&gt;&lt;/p&gt;&lt;span style=&quot;font-size: 18px;&quot;&gt;&lt;br&gt;&lt;/span&gt;" style="text;html=1;strokeColor=default;fillColor=none;align=left;verticalAlign=top;whiteSpace=wrap;rounded=0;spacing=20;dashed=1;" vertex="1" parent="1">
          <mxGeometry x="990" y="-892" width="880" height="300" as="geometry" />
        </mxCell>
        <mxCell id="63bouKpKImv6Q-pQvR82-88" value="1...n" style="edgeStyle=orthogonalEdgeStyle;rounded=0;orthogonalLoop=1;jettySize=auto;html=1;endArrow=block;endFill=1;sourcePerimeterSpacing=5;targetPerimeterSpacing=5;labelPosition=center;verticalLabelPosition=top;align=center;verticalAlign=bottom;spacingLeft=0;fontSize=16;fontStyle=1;labelBackgroundColor=none;" edge="1" parent="1" source="xBkIFKBq-N3a4EHUcWVp-46" target="xBkIFKBq-N3a4EHUcWVp-2">
          <mxGeometry x="0.5505" y="-3" relative="1" as="geometry">
            <mxPoint x="1365" y="-1568" as="sourcePoint" />
            <mxPoint x="1220" y="-1567" as="targetPoint" />
            <Array as="points" />
            <mxPoint as="offset" />
          </mxGeometry>
        </mxCell>
        <mxCell id="63bouKpKImv6Q-pQvR82-89" value="" style="edgeStyle=orthogonalEdgeStyle;rounded=0;orthogonalLoop=1;jettySize=auto;html=1;endArrow=block;endFill=1;sourcePerimeterSpacing=5;targetPerimeterSpacing=5;labelPosition=center;verticalLabelPosition=top;align=center;verticalAlign=bottom;spacingLeft=0;fontSize=16;fontStyle=1;labelBackgroundColor=none;" edge="1" parent="1" source="xBkIFKBq-N3a4EHUcWVp-71" target="xBkIFKBq-N3a4EHUcWVp-2">
          <mxGeometry x="0.549" y="-3" relative="1" as="geometry">
            <mxPoint x="1405" y="-1363" as="sourcePoint" />
            <mxPoint x="1255" y="-1457" as="targetPoint" />
            <Array as="points" />
            <mxPoint as="offset" />
          </mxGeometry>
        </mxCell>
        <mxCell id="63bouKpKImv6Q-pQvR82-90" value="" style="edgeStyle=orthogonalEdgeStyle;rounded=0;orthogonalLoop=1;jettySize=auto;html=1;endArrow=block;endFill=1;sourcePerimeterSpacing=5;targetPerimeterSpacing=5;labelPosition=center;verticalLabelPosition=top;align=center;verticalAlign=bottom;spacingLeft=0;fontSize=16;fontStyle=1;labelBackgroundColor=none;" edge="1" parent="1" source="63bouKpKImv6Q-pQvR82-63" target="xBkIFKBq-N3a4EHUcWVp-2">
          <mxGeometry x="0.549" y="-3" relative="1" as="geometry">
            <mxPoint x="1405" y="-1196" as="sourcePoint" />
            <mxPoint x="1255" y="-1457" as="targetPoint" />
            <Array as="points" />
            <mxPoint as="offset" />
          </mxGeometry>
        </mxCell>
        <mxCell id="63bouKpKImv6Q-pQvR82-92" value="" style="edgeStyle=orthogonalEdgeStyle;rounded=0;orthogonalLoop=1;jettySize=auto;html=1;endArrow=block;endFill=1;sourcePerimeterSpacing=5;targetPerimeterSpacing=5;labelPosition=center;verticalLabelPosition=top;align=center;verticalAlign=bottom;spacingLeft=0;fontSize=16;fontStyle=1;labelBackgroundColor=none;" edge="1" parent="1" source="63bouKpKImv6Q-pQvR82-64" target="63bouKpKImv6Q-pQvR82-54">
          <mxGeometry x="0.549" y="-3" relative="1" as="geometry">
            <mxPoint x="1405" y="-1144" as="sourcePoint" />
            <mxPoint x="1255" y="-1145" as="targetPoint" />
            <Array as="points">
              <mxPoint x="1320" y="-1128" />
              <mxPoint x="1320" y="-1155" />
            </Array>
            <mxPoint as="offset" />
          </mxGeometry>
        </mxCell>
        <mxCell id="63bouKpKImv6Q-pQvR82-93" value="1...n" style="edgeStyle=orthogonalEdgeStyle;rounded=0;orthogonalLoop=1;jettySize=auto;html=1;endArrow=block;endFill=1;sourcePerimeterSpacing=5;targetPerimeterSpacing=5;labelPosition=center;verticalLabelPosition=top;align=center;verticalAlign=bottom;spacingLeft=0;fontSize=16;fontStyle=1;labelBackgroundColor=none;" edge="1" parent="1" source="xBkIFKBq-N3a4EHUcWVp-72" target="63bouKpKImv6Q-pQvR82-54">
          <mxGeometry x="0.2667" y="1" relative="1" as="geometry">
            <mxPoint x="1405" y="-1363" as="sourcePoint" />
            <mxPoint x="1255" y="-1457" as="targetPoint" />
            <Array as="points">
              <mxPoint x="1380" y="-1155" />
              <mxPoint x="1380" y="-1155" />
            </Array>
            <mxPoint as="offset" />
          </mxGeometry>
        </mxCell>
      </root>
    </mxGraphModel>
  </diagram>
</mxfile>
